<svg height="480pt" viewBox="0 0 480 480" width="480pt" xmlns="http://www.w3.org/2000/svg" xmlns:xlink="http://www.w3.org/1999/xlink">
    <linearGradient id="a">
        <stop offset="0" stop-color="#e93e3a" />
        <stop offset=".36" stop-color="#ed683c" />
        <stop offset=".716" stop-color="#f3903f" />
        <stop offset="1" stop-color="#fdc70c" />
    </linearGradient>
    <linearGradient id="b" gradientUnits="userSpaceOnUse" x1="242.56" x2="237.144" xlink:href="#a" y1="481.592" y2="-13.184" />
    <linearGradient id="c" gradientUnits="userSpaceOnUse" x1="204.92" x2="199.512" xlink:href="#a" y1="482.008" y2="-12.776" />
    <linearGradient id="d" gradientUnits="userSpaceOnUse" x1="236.92" x2="231.504" xlink:href="#a" y1="481.656" y2="-13.12" />
    <linearGradient id="e" gradientUnits="userSpaceOnUse" x1="268.912" x2="263.504" xlink:href="#a" y1="481.304" y2="-13.472" />
    <linearGradient id="f" gradientUnits="userSpaceOnUse" x1="270.44" x2="265.032" xlink:href="#a" y1="481.288" y2="-13.488" />
    <linearGradient id="g" gradientUnits="userSpaceOnUse" x1="392.576" x2="387.16" xlink:href="#a" y1="479.952" y2="-14.824" />
    <linearGradient id="h" gradientTransform="matrix(8.002727 .00160601 -.00160601 8.002727 -15.995953 -15.998773)" gradientUnits="userSpaceOnUse" x1="43.438" x2="42.762" xlink:href="#a" y1="62.078" y2=".23" />
    <path d="m456 0h-272c-13.253906 0-24 10.746094-24 24v83.6875c-24.300781-7.640625-50.789062-3.253906-71.328125 11.816406-20.539063 15.070313-32.671875 39.023438-32.671875 64.496094v8c0 4.078125 3.066406 7.503906 7.121094 7.953125l.757812.046875c-13.253906.03125-23.972656 10.804688-23.9375 24.058594.03125 13.257812 10.804688 23.972656 24.058594 23.941406v16c.023438 19 13.386719 35.371094 32 39.199219v17.214843c-54.117188 4.210938-95.9101562 49.304688-96 103.585938v48c0 4.417969 3.582031 8 8 8h256c4.417969 0 8-3.582031 8-8v-48c-.085938-54.28125-41.878906-99.382812-96-103.59375v-17.207031c9.519531-1.996094 17.980469-7.402344 23.792969-15.199219h256.207031c13.253906 0 24-10.746094 24-24v-240c0-13.253906-10.746094-24-24-24zm-272 16h272c4.417969 0 8 3.582031 8 8v24h-288v-24c0-4.417969 3.582031-8 8-8zm-48 104c35.148438.039062 63.703125 28.382812 64 63.527344-21.890625-3.808594-42.179688-13.960938-58.351562-29.191406-3.125-3.117188-8.179688-3.117188-11.304688 0-15.269531 16.554687-35.972656 27.082031-58.34375 29.664062.039062-35.328125 28.671875-63.960938 64-64zm8 80h-16c0-4.417969-3.582031-8-8-8h-16.296875c11.894531-5.234375 22.855469-12.371094 32.457031-21.128906 10.390625 8.6875 21.996094 15.804687 34.449219 21.128906h-18.609375c-4.417969 0-8 3.582031-8 8zm-64 8h32v16h-32zm80 0h32v16h-32zm48 8c4.417969 0 8 3.582031 8 8s-3.582031 8-8 8zm-152 8c0-4.417969 3.582031-8 8-8v16c-4.417969 0-8-3.582031-8-8zm104 101.191406-24 30.007813-24-30v-21.199219h48zm96 98.808594v40h-32v-40h-16v40h-144v-40h-16v40h-32v-40c.078125-47.113281 37.230469-85.816406 84.304688-87.816406l29.449218 36.800781c1.515625 1.898437 3.816406 3.003906 6.246094 3.003906s4.730469-1.105469 6.246094-3.003906l29.449218-36.800781c47.074219 2 84.226563 40.703125 84.304688 87.816406zm-64-160c0 13.253906-10.746094 24-24 24h-64c-13.253906 0-24-10.746094-24-24v-24h40c4.417969 0 8-3.582031 8-8v-16h16v16c0 4.417969 3.582031 8 8 8h40zm264 8h-248.800781c.535156-2.632812.804687-5.3125.800781-8v-16c13.253906 0 24-10.746094 24-24s-10.746094-24-24-24c4.417969 0 8-3.582031 8-8v-8c-.039062-28.542969-15.28125-54.90625-40-69.175781v-50.824219h288v200c0 4.417969-3.582031 8-8 8zm0 0" fill="url(#b)" />
    <path d="m192 24h16v16h-16zm0 0" fill="url(#c)" />
    <path d="m224 24h16v16h-16zm0 0" fill="url(#d)" />
    <path d="m256 24h16v16h-16zm0 0" fill="url(#e)" />
    <path d="m274.34375 130.34375-24 24c-3.121094 3.125-3.121094 8.1875 0 11.3125l24 24 11.3125-11.3125-18.34375-18.34375 18.34375-18.34375zm0 0" fill="url(#f)" />
    <path d="m381.65625 130.34375-11.3125 11.3125 18.34375 18.34375-18.34375 18.34375 11.3125 11.3125 24-24c3.121094-3.125 3.121094-8.1875 0-11.3125zm0 0" fill="url(#g)" />
    <path d="m304.585938 197.035156 31.96875-80.007812 14.859374 5.9375-31.96875 80.007812zm0 0" fill="url(#h)" />
</svg>